# xmcd
#
# Track frame offsets:
#	225
#	15462
#	31544
#	50371
#	65523
#	81148
#	94664
#	110484
#	127579
#	141954
#	156791
#	172830
#
# Disc length: 2512 seconds
#
# Revision: 0
# Processed by: cddbd v1.4PL0 Copyright (c) Steve Scherf et al.
# Submitted via: EasyCDDAExtractor 4.5.0.1
#
DISCID=8609cd0c
DTITLE=Liberación - Ahora y Siempre.
DYEAR=2001
DGENRE=Grupero
TTITLE0=En la misma cama
TTITLE1=Ella y yo
TTITLE2=Aniversario de un adiós
TTITLE3=Niña, Mujer
TTITLE4=Loco por tu amor
TTITLE5=Doble barril
TTITLE6=Ese soy yo
TTITLE7=Si tu supieras
TTITLE8=Por un beso
TTITLE9=Cuando volveras
TTITLE10=Todo te creia
TTITLE11=Que voy a hacer para olvidarte
EXTD=YEAR: 2001\n
EXTT0=
EXTT1=
EXTT2=
EXTT3=
EXTT4=
EXTT5=
EXTT6=
EXTT7=
EXTT8=
EXTT9=
EXTT10=
EXTT11=
PLAYORDER=
